<mxfile host="app.diagrams.net" modified="2022-11-10T12:24:17.206Z" agent="5.0 (Windows NT 10.0; Win64; x64) AppleWebKit/537.36 (KHTML, like Gecko) Chrome/107.0.0.0 Safari/537.36" etag="jxp_p4TKAl6HYKsiui6b" version="20.5.3" type="github">
  <diagram id="pmG5EdnDqFVhg7L0qgeN" name="Página-1">
    <mxGraphModel dx="868" dy="488" grid="1" gridSize="10" guides="1" tooltips="1" connect="1" arrows="1" fold="1" page="1" pageScale="1" pageWidth="827" pageHeight="1169" math="0" shadow="0">
      <root>
        <mxCell id="0" />
        <mxCell id="1" parent="0" />
        <mxCell id="MbG0qyCTvQ98tMsMmwY8-14" style="edgeStyle=orthogonalEdgeStyle;rounded=0;orthogonalLoop=1;jettySize=auto;html=1;entryX=0;entryY=0.5;entryDx=0;entryDy=0;" edge="1" parent="1" source="MbG0qyCTvQ98tMsMmwY8-1" target="MbG0qyCTvQ98tMsMmwY8-12">
          <mxGeometry relative="1" as="geometry" />
        </mxCell>
        <mxCell id="MbG0qyCTvQ98tMsMmwY8-1" value="Empleado administrativo" style="shape=umlActor;verticalLabelPosition=bottom;verticalAlign=top;html=1;outlineConnect=0;" vertex="1" parent="1">
          <mxGeometry x="170" y="130" width="30" height="60" as="geometry" />
        </mxCell>
        <mxCell id="MbG0qyCTvQ98tMsMmwY8-15" style="edgeStyle=orthogonalEdgeStyle;rounded=0;orthogonalLoop=1;jettySize=auto;html=1;entryX=0;entryY=0.5;entryDx=0;entryDy=0;" edge="1" parent="1" source="MbG0qyCTvQ98tMsMmwY8-2" target="MbG0qyCTvQ98tMsMmwY8-11">
          <mxGeometry relative="1" as="geometry" />
        </mxCell>
        <mxCell id="MbG0qyCTvQ98tMsMmwY8-2" value="Alumno no registrado" style="shape=umlActor;verticalLabelPosition=bottom;verticalAlign=top;html=1;outlineConnect=0;" vertex="1" parent="1">
          <mxGeometry x="170" y="250" width="30" height="60" as="geometry" />
        </mxCell>
        <mxCell id="MbG0qyCTvQ98tMsMmwY8-20" style="edgeStyle=orthogonalEdgeStyle;rounded=0;orthogonalLoop=1;jettySize=auto;html=1;entryX=1;entryY=0.5;entryDx=0;entryDy=0;endArrow=none;endFill=0;" edge="1" parent="1" source="MbG0qyCTvQ98tMsMmwY8-3" target="MbG0qyCTvQ98tMsMmwY8-9">
          <mxGeometry relative="1" as="geometry" />
        </mxCell>
        <mxCell id="MbG0qyCTvQ98tMsMmwY8-3" value="Servicio del banco" style="shape=umlActor;verticalLabelPosition=bottom;verticalAlign=top;html=1;outlineConnect=0;" vertex="1" parent="1">
          <mxGeometry x="790" y="435" width="30" height="60" as="geometry" />
        </mxCell>
        <mxCell id="MbG0qyCTvQ98tMsMmwY8-16" style="edgeStyle=orthogonalEdgeStyle;rounded=0;orthogonalLoop=1;jettySize=auto;html=1;entryX=0;entryY=0.5;entryDx=0;entryDy=0;" edge="1" parent="1" source="MbG0qyCTvQ98tMsMmwY8-4" target="MbG0qyCTvQ98tMsMmwY8-10">
          <mxGeometry relative="1" as="geometry" />
        </mxCell>
        <mxCell id="MbG0qyCTvQ98tMsMmwY8-17" style="edgeStyle=orthogonalEdgeStyle;rounded=0;orthogonalLoop=1;jettySize=auto;html=1;entryX=0;entryY=0.5;entryDx=0;entryDy=0;" edge="1" parent="1" source="MbG0qyCTvQ98tMsMmwY8-4" target="MbG0qyCTvQ98tMsMmwY8-7">
          <mxGeometry relative="1" as="geometry" />
        </mxCell>
        <mxCell id="MbG0qyCTvQ98tMsMmwY8-18" style="edgeStyle=orthogonalEdgeStyle;rounded=0;orthogonalLoop=1;jettySize=auto;html=1;" edge="1" parent="1" source="MbG0qyCTvQ98tMsMmwY8-4" target="MbG0qyCTvQ98tMsMmwY8-8">
          <mxGeometry relative="1" as="geometry" />
        </mxCell>
        <mxCell id="MbG0qyCTvQ98tMsMmwY8-19" style="edgeStyle=orthogonalEdgeStyle;rounded=0;orthogonalLoop=1;jettySize=auto;html=1;entryX=0;entryY=0.5;entryDx=0;entryDy=0;endArrow=none;endFill=0;" edge="1" parent="1" source="MbG0qyCTvQ98tMsMmwY8-4" target="MbG0qyCTvQ98tMsMmwY8-9">
          <mxGeometry relative="1" as="geometry">
            <Array as="points">
              <mxPoint x="310" y="430" />
              <mxPoint x="310" y="550" />
            </Array>
          </mxGeometry>
        </mxCell>
        <mxCell id="MbG0qyCTvQ98tMsMmwY8-4" value="Alumno registrado" style="shape=umlActor;verticalLabelPosition=bottom;verticalAlign=top;html=1;outlineConnect=0;" vertex="1" parent="1">
          <mxGeometry x="160" y="400" width="30" height="60" as="geometry" />
        </mxCell>
        <mxCell id="MbG0qyCTvQ98tMsMmwY8-6" value="" style="rounded=0;whiteSpace=wrap;html=1;fillColor=none;" vertex="1" parent="1">
          <mxGeometry x="280" y="20" width="460" height="580" as="geometry" />
        </mxCell>
        <mxCell id="MbG0qyCTvQ98tMsMmwY8-7" value="Cerrar sesión" style="ellipse;whiteSpace=wrap;html=1;fillColor=none;" vertex="1" parent="1">
          <mxGeometry x="430" y="350" width="140" height="70" as="geometry" />
        </mxCell>
        <mxCell id="MbG0qyCTvQ98tMsMmwY8-21" style="edgeStyle=orthogonalEdgeStyle;rounded=0;orthogonalLoop=1;jettySize=auto;html=1;entryX=0.5;entryY=0;entryDx=0;entryDy=0;endArrow=classic;endFill=1;" edge="1" parent="1" source="MbG0qyCTvQ98tMsMmwY8-8" target="MbG0qyCTvQ98tMsMmwY8-9">
          <mxGeometry relative="1" as="geometry">
            <Array as="points">
              <mxPoint x="570" y="500" />
              <mxPoint x="570" y="500" />
            </Array>
          </mxGeometry>
        </mxCell>
        <mxCell id="MbG0qyCTvQ98tMsMmwY8-8" value="Inscribirse a carrera" style="ellipse;whiteSpace=wrap;html=1;fillColor=none;" vertex="1" parent="1">
          <mxGeometry x="390" y="430" width="140" height="70" as="geometry" />
        </mxCell>
        <mxCell id="MbG0qyCTvQ98tMsMmwY8-9" value="Pagar con tarjeta" style="ellipse;whiteSpace=wrap;html=1;fillColor=none;" vertex="1" parent="1">
          <mxGeometry x="500" y="515" width="140" height="70" as="geometry" />
        </mxCell>
        <mxCell id="MbG0qyCTvQ98tMsMmwY8-10" value="Iniciar sesión" style="ellipse;whiteSpace=wrap;html=1;fillColor=none;" vertex="1" parent="1">
          <mxGeometry x="430" y="260" width="140" height="70" as="geometry" />
        </mxCell>
        <mxCell id="MbG0qyCTvQ98tMsMmwY8-11" value="Realizar registro" style="ellipse;whiteSpace=wrap;html=1;fillColor=none;" vertex="1" parent="1">
          <mxGeometry x="430" y="160" width="140" height="70" as="geometry" />
        </mxCell>
        <mxCell id="MbG0qyCTvQ98tMsMmwY8-12" value="Cargar carrera" style="ellipse;whiteSpace=wrap;html=1;fillColor=none;" vertex="1" parent="1">
          <mxGeometry x="430" y="40" width="140" height="70" as="geometry" />
        </mxCell>
        <mxCell id="MbG0qyCTvQ98tMsMmwY8-22" value="&amp;lt;Extends&amp;gt;" style="text;html=1;strokeColor=none;fillColor=none;align=center;verticalAlign=middle;whiteSpace=wrap;rounded=0;" vertex="1" parent="1">
          <mxGeometry x="570" y="480" width="60" height="30" as="geometry" />
        </mxCell>
      </root>
    </mxGraphModel>
  </diagram>
</mxfile>
